<?xml version="1.0" encoding="utf-8"?>
<!-- Generator: Adobe Illustrator 23.0.1, SVG Export Plug-In . SVG Version: 6.00 Build 0)  -->
<svg version="1.1" id="Layer_1" xmlns="http://www.w3.org/2000/svg" xmlns:xlink="http://www.w3.org/1999/xlink" x="0px" y="0px"
	 viewBox="0 0 60.2 53.8" style="enable-background:new 0 0 60.2 53.8;" xml:space="preserve">
<style type="text/css">
	.st0{fill:none;stroke:#FFFFFF;stroke-width:2;stroke-linecap:round;stroke-miterlimit:10;}
	.st1{fill:none;stroke:#FFFFFF;stroke-width:2;stroke-miterlimit:10;}
	.st2{fill-rule:evenodd;clip-rule:evenodd;fill:#FFFFFF;}
	.st3{fill:#FF723D;}
	.st4{fill:#FFFFFF;}
	.st5{font-family:'MyriadPro-Regular';}
	.st6{font-size:15.6949px;}
</style>
<path class="st0" d="M1.6,10.8h3.5c0.3,0,0.6,0.1,0.9,0.3c0.2,0.2,0.4,0.5,0.5,0.8l3.2,16.7c0.1,0.3,0.2,0.6,0.5,0.8
	c0.2,0.2,0.6,0.3,0.9,0.3h16.5"/>
<path class="st1" d="M7.4,14.9H28c0.2,0,0.4,0.1,0.6,0.2s0.4,0.2,0.5,0.4c0.1,0.2,0.2,0.4,0.3,0.6c0,0.2,0,0.4,0,0.7L27.3,24
	c-0.1,0.3-0.3,0.6-0.5,0.7C26.6,24.9,26.3,25,26,25H9.5"/>
<path class="st2" d="M46.7,0.1c7.2,0,13,5.8,13,13s-5.8,13-13,13s-13-5.8-13-13C33.7,6,39.5,0.1,46.7,0.1z"/>
<path class="st3" d="M47.5,17.9h-1.1v-7.1c0-0.6,0-1.2,0.1-1.7c-0.1,0.1-0.2,0.2-0.3,0.3s-0.7,0.5-1.6,1.3L44,9.9l2.6-2h1v10H47.5z"
	/>
<path class="st1" d="M13,38.6c1.4,0,2.5-1.1,2.5-2.5s-1.1-2.5-2.5-2.5s-2.5,1.1-2.5,2.5S11.6,38.6,13,38.6z"/>
<path class="st1" d="M22.9,38.6c1.4,0,2.5-1.1,2.5-2.5s-1.1-2.5-2.5-2.5s-2.5,1.1-2.5,2.5S21.5,38.6,22.9,38.6z"/>
<text transform="matrix(1 0 0 1 3.5672 53.4925)" class="st4 st5 st6">Cart</text>
</svg>
