<?xml version="1.0" encoding="utf-8"?>
<!-- Generator: Adobe Illustrator 23.0.1, SVG Export Plug-In . SVG Version: 6.00 Build 0)  -->
<svg version="1.1" id="Layer_1" xmlns="http://www.w3.org/2000/svg" xmlns:xlink="http://www.w3.org/1999/xlink" x="0px" y="0px"
	 viewBox="0 0 75 75" style="enable-background:new 0 0 75 75;" xml:space="preserve">
<style type="text/css">
	.st0{fill:#FFFFFF;}
	.st1{fill:#FF723D;}
</style>
<circle class="st0" cx="37.5" cy="37.5" r="37.5"/>
<g>
	<path class="st1" d="M43.4,40.4h-12c-7.4,0-13.5,5.5-13.5,12.4v0.5c0,0.8,0.4,1.6,1,2.2c0.6,0.6,1.5,0.9,2.4,0.9h32.3
		c0.9,0,1.7-0.3,2.4-0.9c0.6-0.6,1-1.4,1-2.2v-0.5C56.9,45.9,50.8,40.4,43.4,40.4z"/>
	<path class="st1" d="M37.4,38.5c5.2,0,9.5-4.5,9.5-10s-4.3-10-9.5-10c-5.2,0-9.5,4.5-9.5,10S32.2,38.5,37.4,38.5z"/>
</g>
</svg>
