<?xml version="1.0" encoding="utf-8"?>
<!-- Generator: Adobe Illustrator 23.0.1, SVG Export Plug-In . SVG Version: 6.00 Build 0)  -->
<svg version="1.1" id="Layer_1" xmlns="http://www.w3.org/2000/svg" xmlns:xlink="http://www.w3.org/1999/xlink" x="0px" y="0px"
	 viewBox="0 0 75 75" style="enable-background:new 0 0 75 75;" xml:space="preserve">
<style type="text/css">
	.st0{fill:#FFFFFF;}
	.st1{fill:#FF723D;stroke:#FFFFFF;stroke-width:12;}
</style>
<circle class="st0" cx="37.5" cy="37.5" r="37.5"/>
<path class="st1" d="M18.1,51c2.4,0,4.4-0.5,6.2-1.2l0.1,0.2c3.3,6.8,10.7,11,18.7,11c2.6,0,5.2-0.5,7.5-1.3
	c1.8,0.7,3.9,1.3,6.4,1.3c3,0,5.2-1.9,6.1-4.2c0.9-2.2,0.5-4.8-1.1-6.6l0,0c0,0,0,0,0,0c0,0,0-0.1-0.1-0.1c0,0-0.1-0.1-0.1-0.1
	c1.1-2.2,1.7-4.7,1.7-7.4c0-8.1-5.7-14.5-12.6-17.1C47.7,18.4,39.9,14,31.9,14c-10.4,0-20.4,7.5-20.4,18.5c0,2.7,0.6,5.2,1.7,7.4
	c0,0-0.1,0.1-0.1,0.1c0,0.1-0.1,0.1-0.1,0.1c-1.6,2-1.9,4.5-1.1,6.6C12.8,49,15,51,18.1,51z"/>
</svg>
