<?xml version="1.0" encoding="utf-8"?>
<!-- Generator: Adobe Illustrator 23.0.1, SVG Export Plug-In . SVG Version: 6.00 Build 0)  -->
<svg version="1.1" id="Layer_1" xmlns="http://www.w3.org/2000/svg" xmlns:xlink="http://www.w3.org/1999/xlink" x="0px" y="0px"
	 viewBox="0 0 58 58" style="enable-background:new 0 0 58 58;" xml:space="preserve">
<style type="text/css">
	.st0{fill:#CBCBCB;fill-opacity:0.23;}
	.st1{fill:#4E4E4E;fill-opacity:0.45;}
</style>
<path class="st0" d="M12,0h34c6.6,0,12,5.4,12,12v34c0,6.6-5.4,12-12,12H12C5.4,58,0,52.6,0,46V12C0,5.4,5.4,0,12,0z"/>
<path class="st1" d="M33.2,30.1l0.5-3.2h-3.1v-2.1c0-0.9,0.4-1.7,1.8-1.7h1.4v-2.7c0,0-1.3-0.2-2.5-0.2c-2.6,0-4.2,1.5-4.2,4.3v2.4
	h-2.8v3.2H27v7.7h3.5v-7.7H33.2z"/>
</svg>
