<?xml version="1.0" encoding="utf-8"?>
<!-- Generator: Adobe Illustrator 23.0.1, SVG Export Plug-In . SVG Version: 6.00 Build 0)  -->
<svg version="1.1" id="Layer_1" xmlns="http://www.w3.org/2000/svg" xmlns:xlink="http://www.w3.org/1999/xlink" x="0px" y="0px"
	 viewBox="0 0 75 75" style="enable-background:new 0 0 75 75;" xml:space="preserve">
<style type="text/css">
	.st0{fill:#FFFFFF;}
	.st1{fill:#FF723D;}
</style>
<circle class="st0" cx="37.5" cy="37.5" r="37.5"/>
<g>
	<path class="st1" d="M37.5,63c-5.9,0-11.6-2-16.1-5.8c-4.6-3.7-7.7-8.9-8.8-14.7c-1.2-5.8-0.3-11.8,2.4-17
		c2.7-5.1,7.1-9.2,12.6-11.5c6.2-2.6,13.3-2.7,19.5-0.1c6.3,2.5,11.3,7.4,13.9,13.7c2.6,6.2,2.7,13.3,0.1,19.5
		c-2.5,6.3-7.5,11.3-13.7,13.9C44.3,62.3,40.9,63,37.5,63z M37.5,14.6c-5.3,0-10.5,1.8-14.6,5.2c-4.1,3.3-6.9,8-7.9,13.2
		s-0.2,10.6,2.3,15.3s6.5,8.3,11.5,10.4c4.9,2,10.4,2.3,15.4,0.8c5.1-1.5,9.5-4.8,12.4-9.2s4.3-9.7,3.8-15s-2.9-10.2-6.6-14
		c-2.1-2.1-4.7-3.8-7.4-5C43.5,15.1,40.5,14.6,37.5,14.6z"/>
	<path class="st1" d="M36.9,32.1c-7.1,0-13-0.3-17.3-1c-3.3-0.5-4.6-1-4.7-1l1.1-2l0,0c0,0,1.2,0.5,4.3,0.9
		c2.9,0.4,8.1,0.9,16.6,0.9c16.4,0,22-1.6,22.1-1.6l0.9,2.1C59.6,30.4,53.9,32.1,36.9,32.1z"/>
	<path class="st1" d="M59.4,46.5l-0.9,2.1c-0.1,0-5.6-1.6-22.1-1.6c-8.5,0-13.7,0.5-16.6,0.9c-3.2,0.4-4.3,0.9-4.3,0.9l0,0l-1.1-2
		c0.1-0.1,1.4-0.6,4.7-1c4.4-0.6,10.2-1,17.3-1C53.5,44.8,59.1,46.4,59.4,46.5z"/>
	<path class="st1" d="M39.3,63l-0.5-2.5l0,0c0.9-0.2,3-1.3,4.9-3.9c1.5-1.9,2.6-4.4,3.5-7.3c1.1-3.7,1.6-8.2,1.6-13.2
		c0-4.4-0.6-8.3-1.7-11.6c-0.9-2.6-2.1-4.7-3.6-6.4c-2.1-2.3-4.3-3.3-5.2-3.5l0,0l0.4-2.6c0.1,0,3.3,0.7,6.4,4.1
		c1.8,2,3.2,4.4,4.2,7.3c1.2,3.6,1.9,7.8,1.9,12.6c0,5.4-0.6,10.2-1.8,14.2c-1,3.3-2.3,6-4,8.2C43.1,61.5,40.4,62.7,39.3,63z"/>
	<path class="st1" d="M36.2,63c-0.1,0-3.3-0.7-6.4-4.1c-1.8-2-3.2-4.4-4.2-7.3c-1.2-3.6-1.9-7.8-1.9-12.6c0-5.4,0.6-10.2,1.8-14.2
		c1-3.2,2.3-6,4-8.2c2.4-3.1,5-4.3,6.2-4.6l0.5,2.5l0,0c-0.9,0.2-3,1.3-4.9,3.9c-1.5,1.9-2.6,4.4-3.5,7.3c-1.1,3.7-1.6,8.2-1.6,13.2
		c0,4.4,0.6,8.3,1.7,11.6c0.9,2.6,2.1,4.7,3.6,6.4c2.1,2.3,4.3,3.3,5.2,3.5l0,0L36.2,63z"/>
	<path class="st1" d="M38.8,14h-3v49h3V14z"/>
</g>
</svg>
