<?xml version="1.0" encoding="utf-8"?>
<!-- Generator: Adobe Illustrator 23.0.1, SVG Export Plug-In . SVG Version: 6.00 Build 0)  -->
<svg version="1.1" id="Layer_1" xmlns="http://www.w3.org/2000/svg" xmlns:xlink="http://www.w3.org/1999/xlink" x="0px" y="0px"
	 viewBox="0 0 58 58" style="enable-background:new 0 0 58 58;" xml:space="preserve">
<style type="text/css">
	.st0{fill:#CBCBCB;fill-opacity:0.23;}
	.st1{fill:#4E4E4E;fill-opacity:0.45;}
</style>
<path class="st0" d="M12,0h34c6.6,0,12,5.4,12,12v34c0,6.6-5.4,12-12,12H12C5.4,58,0,52.6,0,46V12C0,5.4,5.4,0,12,0z"/>
<path class="st1" d="M29,24.5c-2.5,0-4.5,2-4.5,4.5c0,2.5,2,4.5,4.5,4.5c2.5,0,4.5-2,4.5-4.5C33.5,26.5,31.5,24.5,29,24.5z M29,31.9
	c-1.6,0-2.9-1.3-2.9-2.9c0-1.6,1.3-2.9,2.9-2.9c1.6,0,2.9,1.3,2.9,2.9C31.9,30.6,30.6,31.9,29,31.9z M34.8,24.3
	c0,0.6-0.5,1.1-1.1,1.1c-0.6,0-1.1-0.5-1.1-1.1c0-0.6,0.5-1.1,1.1-1.1S34.8,23.7,34.8,24.3z M37.7,25.4c-0.1-1.4-0.4-2.7-1.4-3.7
	c-1-1-2.3-1.4-3.7-1.4c-1.5-0.1-5.8-0.1-7.3,0c-1.4,0.1-2.7,0.4-3.7,1.4c-1,1-1.4,2.3-1.4,3.7c-0.1,1.5-0.1,5.8,0,7.3
	c0.1,1.4,0.4,2.7,1.4,3.7c1,1,2.3,1.4,3.7,1.4c1.5,0.1,5.8,0.1,7.3,0c1.4-0.1,2.7-0.4,3.7-1.4c1-1,1.4-2.3,1.4-3.7
	C37.8,31.2,37.8,26.8,37.7,25.4z M35.9,34.2c-0.3,0.8-0.9,1.4-1.7,1.7c-1.2,0.5-3.9,0.4-5.2,0.4c-1.3,0-4,0.1-5.2-0.4
	c-0.8-0.3-1.4-0.9-1.7-1.7c-0.5-1.2-0.4-3.9-0.4-5.2c0-1.3-0.1-4,0.4-5.2c0.3-0.8,0.9-1.4,1.7-1.7c1.2-0.5,3.9-0.4,5.2-0.4
	c1.3,0,4-0.1,5.2,0.4c0.8,0.3,1.4,0.9,1.7,1.7c0.5,1.2,0.4,3.9,0.4,5.2C36.2,30.3,36.3,33,35.9,34.2z"/>
</svg>
