<?xml version="1.0" encoding="utf-8"?>
<!-- Generator: Adobe Illustrator 23.0.1, SVG Export Plug-In . SVG Version: 6.00 Build 0)  -->
<svg version="1.1" id="Layer_1" xmlns="http://www.w3.org/2000/svg" xmlns:xlink="http://www.w3.org/1999/xlink" x="0px" y="0px"
	 viewBox="0 0 58 58" style="enable-background:new 0 0 58 58;" xml:space="preserve">
<style type="text/css">
	.st0{fill:#CBCBCB;fill-opacity:0.23;}
	.st1{fill:#4E4E4E;fill-opacity:0.45;}
</style>
<path class="st0" d="M12,0h34c6.6,0,12,5.4,12,12v34c0,6.6-5.4,12-12,12H12C5.4,58,0,52.6,0,46V12C0,5.4,5.4,0,12,0z"/>
<path class="st1" d="M37.2,19.8H20.8c-0.8,0-1.4,0.6-1.4,1.3v15.7c0,0.7,0.6,1.3,1.4,1.3h16.5c0.8,0,1.4-0.6,1.4-1.3V21.1
	C38.6,20.4,38,19.8,37.2,19.8z M25.2,35.6h-2.8v-8.8h2.9L25.2,35.6L25.2,35.6z M23.8,25.6c-0.9,0-1.6-0.7-1.6-1.6
	c0-0.9,0.7-1.6,1.6-1.6c0.9,0,1.7,0.7,1.7,1.6C25.4,24.9,24.7,25.6,23.8,25.6z M35.9,35.6H33v-4.3c0-1,0-2.3-1.5-2.3
	c-1.5,0-1.7,1.1-1.7,2.3v4.3H27v-8.8h2.7V28h0c0.4-0.7,1.3-1.4,2.7-1.4c2.9,0,3.4,1.8,3.4,4.2V35.6z"/>
</svg>
