<?xml version="1.0" encoding="utf-8"?>
<!-- Generator: Adobe Illustrator 23.0.1, SVG Export Plug-In . SVG Version: 6.00 Build 0)  -->
<svg version="1.1" xmlns="http://www.w3.org/2000/svg" xmlns:xlink="http://www.w3.org/1999/xlink" x="0px" y="0px"
	 viewBox="0 0 16 12" style="enable-background:new 0 0 16 12;" xml:space="preserve">
<style type="text/css">
	.st0{fill:#F37343;}
	.st1{fill:#FFFFFF;}
</style>
<g id="Layer_1">
	<path class="st0" d="M13,12H3.1C1.4,12,0,10.6,0,8.9V3.1C0,1.4,1.4,0,3.1,0h9.8C14.6,0,16,1.4,16,3.1V9C16,10.6,14.6,12,13,12z"/>
	<polygon class="st1" points="3.6,2 12.4,2 8,5.7 	"/>
	<path class="st1" d="M2,3.3l5.1,4.2C7.1,7.6,7.6,8,8,8c0.4,0,0.9-0.5,0.9-0.5L14,3.4L14,8.7c0,0,0.1,0.7-0.4,1
		c-0.3,0.3-1,0.2-1,0.2H3c0,0-0.5,0-0.7-0.3C2,9.3,2,8.7,2,8.7V3.3z"/>
</g>
<g id="Layer_2">
</g>
</svg>
