<?xml version="1.0" encoding="utf-8"?>
<!-- Generator: Adobe Illustrator 23.0.1, SVG Export Plug-In . SVG Version: 6.00 Build 0)  -->
<svg version="1.1" id="Layer_1" xmlns="http://www.w3.org/2000/svg" xmlns:xlink="http://www.w3.org/1999/xlink" x="0px" y="0px"
	 viewBox="0 0 116 102" style="enable-background:new 0 0 116 102;" xml:space="preserve">
<style type="text/css">
	.st0{fill:#FFFFFF;fill-opacity:0.37;}
</style>
<path class="st0" d="M32.2,89.2c-5.2,0-10.3-4.5-12.9-6.4C6.4,73.9,2.6,70.8,0,68.8v26.8c0,3.5,2.9,6.4,6.4,6.4H58
	c3.6,0,6.4-2.9,6.4-6.4V68.8c-2.6,1.9-6.4,5.1-19.3,14C42.5,84.8,37.4,89.2,32.2,89.2z M58,51H6.4C2.9,51,0,53.9,0,57.4v3.2
	c5.2,3.8,4.5,3.8,23.2,17.2c1.9,1.3,5.8,5.1,9,5.1c3.2,0,7.1-3.8,9-4.5C59.9,65,59.3,65,64.4,61.2v-3.8C64.4,53.9,61.6,51,58,51z
	 M109.6,31.9H45.1c-3.6,0-6.4,2.9-6.4,6.4v6.4H58c6.7,0,12.2,5.1,12.8,11.5l0.1,0v26.8h38.7c3.6,0,6.4-2.9,6.4-6.4V38.2
	C116,34.7,113.1,31.9,109.6,31.9z M103.1,57.4H90.2V44.6h12.9V57.4z M32.2,38.2c0-7,5.8-12.8,12.9-12.8h45.1V6.4
	c0-3.5-2.9-6.4-6.4-6.4H19.3c-3.6,0-6.4,2.9-6.4,6.4v38.2h19.3V38.2z"/>
</svg>
