<?xml version="1.0" encoding="utf-8"?>
<!-- Generator: Adobe Illustrator 23.0.1, SVG Export Plug-In . SVG Version: 6.00 Build 0)  -->
<svg version="1.1" id="Layer_1" xmlns="http://www.w3.org/2000/svg" xmlns:xlink="http://www.w3.org/1999/xlink" x="0px" y="0px"
	 viewBox="0 0 16 17" style="enable-background:new 0 0 16 17;" xml:space="preserve">
<style type="text/css">
	.st0{fill-rule:evenodd;clip-rule:evenodd;fill:#FF723D;}
</style>
<path class="st0" d="M6.3,7.3C6.7,7.1,7,6.7,7,6.3v-3c0-1.7-1.3-3-3-3H1c-0.6,0-1,0.4-1,1c0,7.9,7.1,15,15,15c0.6,0,1-0.4,1-1v-3
	c0-1.7-1.3-3-3-3h-3c-0.4,0-0.8,0.3-0.9,0.7l-0.7,2.2c-1.6-1-2.9-2.3-4-3.9L4.1,8L6.3,7.3z M10.7,11.3H13c0.6,0,1,0.4,1,1v2
	c-1.2-0.1-2.4-0.4-3.5-0.9l-0.4-0.2L10.7,11.3z M2,2.3h2c0.6,0,1,0.4,1,1v2.3L3.1,6.2C2.5,5,2.2,3.7,2,2.3z"/>
</svg>
