<?xml version="1.0" encoding="utf-8"?>
<!-- Generator: Adobe Illustrator 23.0.1, SVG Export Plug-In . SVG Version: 6.00 Build 0)  -->
<svg version="1.1" id="Layer_1" xmlns="http://www.w3.org/2000/svg" xmlns:xlink="http://www.w3.org/1999/xlink" x="0px" y="0px"
	 viewBox="0 0 45 35" style="enable-background:new 0 0 45 35;" xml:space="preserve">
<style type="text/css">
	.st0{fill-rule:evenodd;clip-rule:evenodd;fill:#232323;}
</style>
<path class="st0" d="M40.9,0.1l-36.7,0C2.1,0.1,0,2,0,3.9v26.8c0,2.1,1.8,3.8,4.1,3.8h36.7c2,0,4.1-1.9,4.1-3.8V3.9
	C45,2,42.9,0.1,40.9,0.1z M40.9,30.6c0,0.1-0.1,0.1-0.2,0.2H4.1V4l0.2-0.2h36.4c0.1,0,0.1,0.1,0.2,0.2L40.9,30.6L40.9,30.6z
	 M20.5,24l-5.1-5.8l-7.1,8.6h28.6l-9.2-11.5L20.5,24z"/>
</svg>
