<?xml version="1.0" encoding="utf-8"?>
<!-- Generator: Adobe Illustrator 23.0.1, SVG Export Plug-In . SVG Version: 6.00 Build 0)  -->
<svg version="1.1" id="Layer_1" xmlns="http://www.w3.org/2000/svg" xmlns:xlink="http://www.w3.org/1999/xlink" x="0px" y="0px"
	 viewBox="0 0 75 75" style="enable-background:new 0 0 75 75;" xml:space="preserve">
<style type="text/css">
	.st0{fill:#FFFFFF;}
	.st1{fill:#FF723D;}
</style>
<circle class="st0" cx="37.5" cy="37.5" r="37.5"/>
<g>
	<path class="st1" d="M53.7,39.7L64,54.8l-8.4-1.3l-1.5,9.1L44,48.2L53.7,39.7z"/>
	<path class="st1" d="M21.3,39.6L11,54.7l8.4-1.3l1.5,9.1L31,48.1L21.3,39.6z"/>
	<path class="st1" d="M37.6,18.8c-2.4,0-4.7,0.7-6.7,2c-2,1.3-3.5,3.2-4.4,5.4c-0.9,2.2-1.1,4.6-0.7,6.9c0.5,2.3,1.6,4.5,3.3,6.1
		c1.7,1.7,3.8,2.8,6.1,3.3c2.3,0.5,4.7,0.2,6.9-0.7c2.2-0.9,4.1-2.4,5.4-4.4c1.3-2,2-4.3,2-6.7c0-3.2-1.3-6.2-3.5-8.5
		C43.8,20.1,40.8,18.8,37.6,18.8z M36.1,37.5l-6.6-5.6l2.4-2.8l3.9,3.3l7.3-8.2l2.8,2.4L36.1,37.5z"/>
	<path class="st1" d="M37.6,49.3c-4.3,0-8.4-1.5-11.7-4.2c-3.3-2.7-5.6-6.5-6.4-10.7c-0.8-4.2-0.2-8.6,1.8-12.3
		c2-3.8,5.3-6.7,9.2-8.4c4-1.6,8.4-1.9,12.4-0.6c4.1,1.2,7.6,3.9,10,7.4c2.4,3.6,3.4,7.8,3,12.1c-0.4,4.3-2.3,8.2-5.3,11.3
		c-1.7,1.7-3.8,3.1-6,4S40,49.3,37.6,49.3z M37.6,15.3c-8.6,0-15.6,7-15.6,15.6c0,8.6,7,15.6,15.6,15.6c8.6,0,15.6-7,15.6-15.6
		C53.1,22.2,46.2,15.3,37.6,15.3z"/>
</g>
</svg>
