<?xml version="1.0" encoding="utf-8"?>
<!-- Generator: Adobe Illustrator 23.0.1, SVG Export Plug-In . SVG Version: 6.00 Build 0)  -->
<svg version="1.1" id="Layer_1" xmlns="http://www.w3.org/2000/svg" xmlns:xlink="http://www.w3.org/1999/xlink" x="0px" y="0px"
	 viewBox="0 0 76 14" style="enable-background:new 0 0 76 14;" xml:space="preserve">
<style type="text/css">
	.st0{fill:#FF723D;}
</style>
<path class="st0" d="M6.7,0.5L4.8,4L0.8,4.5C0,4.6-0.3,5.5,0.3,6l2.9,2.7l-0.7,3.9c-0.1,0.7,0.6,1.2,1.3,0.9l3.6-1.8l3.6,1.8
	c0.6,0.3,1.4-0.2,1.3-0.9l-0.7-3.9L14.7,6c0.5-0.5,0.2-1.3-0.5-1.4L10.1,4L8.3,0.5C7.9-0.2,7-0.2,6.7,0.5z"/>
<path class="st0" d="M27,0.5L25.2,4l-4.1,0.6c-0.7,0.1-1,1-0.5,1.4l2.9,2.7l-0.7,3.9c-0.1,0.7,0.6,1.2,1.3,0.9l3.6-1.8l3.6,1.8
	c0.6,0.3,1.4-0.2,1.3-0.9l-0.7-3.9L35,6c0.5-0.5,0.2-1.3-0.5-1.4L30.4,4l-1.8-3.5C28.3-0.2,27.4-0.2,27,0.5z"/>
<path class="st0" d="M47.4,0.5L45.6,4l-4.1,0.6c-0.7,0.1-1,1-0.5,1.4l2.9,2.7l-0.7,3.9c-0.1,0.7,0.6,1.2,1.3,0.9l3.6-1.8l3.6,1.8
	c0.6,0.3,1.4-0.2,1.3-0.9l-0.7-3.9L55.4,6c0.5-0.5,0.2-1.3-0.5-1.4L50.8,4L49,0.5C48.7-0.2,47.7-0.2,47.4,0.5z"/>
<path class="st0" d="M67.7,0.5L65.9,4l-4.1,0.6c-0.7,0.1-1,1-0.5,1.4l2.9,2.7l-0.7,3.9c-0.1,0.7,0.6,1.2,1.3,0.9l3.6-1.8l3.6,1.8
	c0.6,0.3,1.4-0.2,1.3-0.9l-0.7-3.9L75.7,6c0.5-0.5,0.2-1.3-0.5-1.4L71.2,4l-1.8-3.5C69-0.2,68.1-0.2,67.7,0.5z"/>
</svg>
