<?xml version="1.0" encoding="utf-8"?>
<!-- Generator: Adobe Illustrator 23.0.1, SVG Export Plug-In . SVG Version: 6.00 Build 0)  -->
<svg version="1.1" id="Layer_1" xmlns="http://www.w3.org/2000/svg" xmlns:xlink="http://www.w3.org/1999/xlink" x="0px" y="0px"
	 viewBox="0 0 75 75" style="enable-background:new 0 0 75 75;" xml:space="preserve">
<style type="text/css">
	.st0{fill:#FFFFFF;}
	.st1{fill:#FF723D;}
</style>
<circle class="st0" cx="37.5" cy="37.5" r="37.5"/>
<g>
	<path class="st1" d="M37.5,62.5L37.5,62.5c-0.2,0-0.4,0-0.5-0.1c-0.2-0.1-0.3-0.1-0.4-0.2c-0.2-0.1-0.5-0.2-0.9-0.4
		c-0.6-0.3-1.7-0.9-3-1.7c-2.1-1.3-5.3-3.3-7.9-5.8c-6-5.4-7.2-15-7.2-15.4l0-0.1V20.5c0-1.3,0.4-2.5,1.3-3.5c0.8-1,1.9-1.6,3.2-1.8
		l14.6-2.6c0.6-0.1,1.3-0.1,2,0l14.6,2.6c1.2,0.2,2.4,0.9,3.2,1.8c0.8,1,1.3,2.2,1.3,3.5v18.4l0,0.1c0,0.4-1.3,10-7.2,15.4
		c-2.7,2.4-5.8,4.5-7.9,5.8c-1.3,0.8-2.3,1.3-3,1.7c-0.4,0.2-0.7,0.4-0.9,0.4c-0.1,0.1-0.3,0.1-0.4,0.2
		C37.8,62.5,37.7,62.5,37.5,62.5z M20.4,38.7c0.1,0.9,1.4,9.1,6.3,13.5c3.9,3.6,9.1,6.4,10.8,7.3c1.6-0.8,6.8-3.7,10.8-7.3
		c4.9-4.5,6.2-12.6,6.3-13.5V20.5c0-0.6-0.2-1.1-0.6-1.6c-0.4-0.4-0.9-0.7-1.5-0.8L38,15.5c-0.3-0.1-0.6-0.1-0.9,0l-14.6,2.6
		c-0.6,0.1-1.1,0.4-1.5,0.8c-0.4,0.4-0.6,1-0.6,1.6V38.7z"/>
	<path class="st1" d="M37.5,56c-0.2,0-0.4,0-0.5-0.1c-0.1,0-0.2-0.1-0.3-0.1c-0.2-0.1-0.4-0.2-0.6-0.3c-0.4-0.2-1.1-0.7-2-1.2
		c-1.5-0.9-3.6-2.4-5.4-4.2c-4.1-4-5-11.1-5-11.4l0-0.1V25.2c0-2.1,1.4-3.9,3.4-4.3l9.8-1.9c0.5-0.1,1-0.1,1.5,0l9.9,1.9
		c2,0.4,3.4,2.2,3.4,4.3v13.3l0,0.1c0,0.3-0.9,7.3-5,11.4c-1.8,1.8-4,3.3-5.4,4.2c-0.9,0.6-1.6,1-2,1.2c-0.2,0.1-0.5,0.2-0.6,0.3
		c-0.1,0.1-0.2,0.1-0.3,0.1C37.9,56,37.7,56,37.5,56L37.5,56z M26.4,38.3c0.1,0.7,1,6.4,4.1,9.5c2.5,2.4,5.6,4.3,6.9,5
		c1.3-0.7,4.5-2.6,6.9-5c3.2-3.1,4-8.8,4.1-9.5V25.2c0-0.7-0.4-1.2-1-1.3L37.7,22c-0.1,0-0.3,0-0.4,0l-9.8,1.9c-0.6,0.1-1,0.7-1,1.3
		L26.4,38.3z"/>
</g>
</svg>
