<?xml version="1.0" encoding="utf-8"?>
<!-- Generator: Adobe Illustrator 23.0.1, SVG Export Plug-In . SVG Version: 6.00 Build 0)  -->
<svg version="1.1" id="Layer_1" xmlns="http://www.w3.org/2000/svg" xmlns:xlink="http://www.w3.org/1999/xlink" x="0px" y="0px"
	 viewBox="0 0 43.1 47.4" style="enable-background:new 0 0 43.1 47.4;" xml:space="preserve">
<style type="text/css">
	.st0{fill:none;stroke:#FFFFFF;stroke-width:2;stroke-linecap:round;stroke-miterlimit:10;}
	.st1{fill:#FFFFFF;}
	.st2{font-family:'MyriadPro-Regular';}
	.st3{font-size:15.6949px;}
</style>
<path class="st0" d="M18,15.5h7c1.8,0,3.6,0.8,4.9,2.2s2,3.3,2,5.3v0.7c0,0.5-0.2,1-0.5,1.3s-0.8,0.5-1.2,0.5H12.7
	c-0.5,0-0.9-0.2-1.2-0.5c-0.3-0.4-0.5-0.8-0.5-1.3V23c0-2,0.7-3.9,2-5.3C14.4,16.3,16.1,15.5,18,15.5L18,15.5z"/>
<path class="st0" d="M21.4,12.3c3,0,5.5-2.5,5.5-5.5s-2.5-5.5-5.5-5.5s-5.5,2.4-5.5,5.5C15.9,9.8,18.4,12.3,21.4,12.3z"/>
<text transform="matrix(1 0 0 1 -0.6458 43.6813)" class="st1 st2 st3">Sign in</text>
</svg>
