<?xml version="1.0" encoding="utf-8"?>
<!-- Generator: Adobe Illustrator 23.0.1, SVG Export Plug-In . SVG Version: 6.00 Build 0)  -->
<svg version="1.1" id="Layer_1" xmlns="http://www.w3.org/2000/svg" xmlns:xlink="http://www.w3.org/1999/xlink" x="0px" y="0px"
	 viewBox="0 0 23 26.6" style="enable-background:new 0 0 23 26.6;" xml:space="preserve">
<style type="text/css">
	.st0{fill:none;stroke:#FFFFFF;stroke-width:2;stroke-linecap:round;stroke-miterlimit:10;}
</style>
<path class="st0" d="M8,15.3h7c1.8,0,3.6,0.8,4.9,2.2s2,3.3,2,5.3v0.7c0,0.5-0.2,1-0.5,1.3s-0.8,0.5-1.2,0.5H2.7
	c-0.5,0-0.9-0.2-1.2-0.5C1.2,24.4,1,24,1,23.5v-0.7c0-2,0.7-3.9,2-5.3C4.4,16.1,6.1,15.3,8,15.3L8,15.3z"/>
<path class="st0" d="M11.5,12.1c3,0,5.5-2.5,5.5-5.5s-2.5-5.5-5.5-5.5S6,3.5,6,6.6C6,9.6,8.5,12.1,11.5,12.1z"/>
</svg>
