<?xml version="1.0" encoding="utf-8"?>
<!-- Generator: Adobe Illustrator 23.0.1, SVG Export Plug-In . SVG Version: 6.00 Build 0)  -->
<svg version="1.1" id="Layer_1" xmlns="http://www.w3.org/2000/svg" xmlns:xlink="http://www.w3.org/1999/xlink" x="0px" y="0px"
	 viewBox="0 0 58 58" style="enable-background:new 0 0 58 58;" xml:space="preserve">
<style type="text/css">
	.st0{fill:#CBCBCB;fill-opacity:0.23;}
	.st1{fill:#4E4E4E;fill-opacity:0.45;}
</style>
<path class="st0" d="M12,0h34c6.6,0,12,5.4,12,12v34c0,6.6-5.4,12-12,12H12C5.4,58,0,52.6,0,46V12C0,5.4,5.4,0,12,0z"/>
<path class="st1" d="M36,25.1c0,0.2,0,0.3,0,0.5c0,5.2-3.6,11.2-10.3,11.2c-2,0-3.9-0.6-5.5-1.8c0.3,0,0.6,0,0.9,0
	c1.7,0,3.2-0.6,4.5-1.7c-1.6,0-2.9-1.2-3.4-2.7c0.2,0,0.4,0.1,0.7,0.1c0.3,0,0.6,0,0.9-0.1c-1.7-0.4-2.9-1.9-2.9-3.9v0
	c0.5,0.3,1,0.5,1.6,0.5c-1-0.7-1.6-1.9-1.6-3.3c0-0.7,0.2-1.4,0.5-2c1.8,2.4,4.4,3.9,7.4,4.1c-0.1-0.3-0.1-0.6-0.1-0.9
	c0-2.2,1.6-3.9,3.6-3.9c1,0,2,0.5,2.6,1.2c0.8-0.2,1.6-0.5,2.3-1c-0.3,0.9-0.8,1.7-1.6,2.2c0.7-0.1,1.4-0.3,2.1-0.6
	C37.3,23.8,36.7,24.5,36,25.1z"/>
</svg>
