<?xml version="1.0" encoding="utf-8"?>
<!-- Generator: Adobe Illustrator 23.0.1, SVG Export Plug-In . SVG Version: 6.00 Build 0)  -->
<svg version="1.1" id="Layer_1" xmlns="http://www.w3.org/2000/svg" xmlns:xlink="http://www.w3.org/1999/xlink" x="0px" y="0px"
	 viewBox="0 0 58 58" style="enable-background:new 0 0 58 58;" xml:space="preserve">
<style type="text/css">
	.st0{fill:#FF7020;fill-opacity:0.23;}
	.st1{fill:#FF7020;}
</style>
<path class="st0" d="M12,0h34c6.6,0,12,5.4,12,12v34c0,6.6-5.4,12-12,12H12C5.4,58,0,52.6,0,46V12C0,5.4,5.4,0,12,0z"/>
<path class="st1" d="M41,22.8c-0.3-1.1-1.1-2-2.2-2.3C36.8,20,29,20,29,20s-7.8,0-9.8,0.5c-1.1,0.3-1.9,1.2-2.2,2.3
	c-0.5,2-0.5,6.2-0.5,6.2s0,4.2,0.5,6.2c0.3,1.1,1.1,1.9,2.2,2.2C21.2,38,29,38,29,38s7.8,0,9.8-0.5c1.1-0.3,1.9-1.1,2.2-2.2
	c0.5-2,0.5-6.2,0.5-6.2S41.5,24.8,41,22.8z M26.4,32.8v-7.6L33,29L26.4,32.8z"/>
</svg>
